PathFileType	4	(X/Y/Z)	Patient4_TMGait_0pt3_02_right_21.trc.trc
DataRate	CameraRate	NumFrames	NumMarkers	Units	OrigDataRate	OrigDataStartFrame	OrigNumFrames
50.179211469534	50.179211469534	4	33	mm	50.179211469534	106	       141
Frame#	Time	Sacral			L.Shoulder			Chest			R.Shoulder			Neck			R.ASIS			L.ASIS			R.Thigh.Superior			R.Thigh.Lateral			R.Thigh.Inferior			R.Patella			L.Thigh.Superior			L.Thigh.Lateral			L.Thigh.Inferior			L.Patella			L.Shank.Superior			L.Shank.Lateral			L.Shank.Inferior			R.Shank.Superior			R.Shank.Lateral			R.Shank.Inferior			R.Heel			R.Midfoot.Superior			R.Midfoot.Lateral			R.Toe			L.Heel			L.Midfoot.Lateral			L.Midfoot.Superior			L.Toe			L.Elbow			L.Wrist			R.Elbow			R.Wrist			
		X1	Y1	Z1	X2	Y2	Z2	X3	Y3	Z3	X4	Y4	Z4	X5	Y5	Z5	X6	Y6	Z6	X7	Y7	Z7	X8	Y8	Z8	X9	Y9	Z9	X10	Y10	Z10	X11	Y11	Z11	X12	Y12	Z12	X13	Y13	Z13	X14	Y14	Z14	X15	Y15	Z15	X16	Y16	Z16	X17	Y17	Z17	X18	Y18	Z18	X19	Y19	Z19	X20	Y20	Z20	X21	Y21	Z21	X22	Y22	Z22	X23	Y23	Z23	X24	Y24	Z24	X25	Y25	Z25	X26	Y26	Z26	X27	Y27	Z27	X28	Y28	Z28	X29	Y29	Z29	X30	Y30	Z30	X31	Y31	Z31	X32	Y32	Z32	X33	Y33	Z33	

106	42.232500000000	746.866038536355	994.555210128513	384.818412141375	947.704678200860	1422.260860891615	211.727919334067	1038.170532418953	1347.998597162353	377.732561150726	948.881900746215	1419.834560012598	548.552897282852	925.010023208283	1483.644804050060	370.082026759761	974.619403475560	931.664355555637	508.630734883818	967.291030666038	947.480530332611	234.509290982927	1043.858800672905	747.304369446228	480.595088318142	990.953106884037	631.152236337504	552.695019278105	1074.465526875684	581.343488040466	471.590742724304	1079.179977355579	467.596954937498	498.360932640110	1027.543564080262	742.122738104401	276.130641662928	951.639457516362	615.698992302132	224.143846504467	1039.684262410248	548.115430544725	296.350007703785	1044.136984012635	473.617438688644	308.775914000296	1004.183351337916	399.452913961707	304.895467119426	902.588978953298	296.454716208461	252.985563244644	927.529792660708	183.454539810658	330.710006658855	994.002615176281	402.690655527485	511.397017888900	866.789828445325	381.835606282532	571.490567101401	842.149802143721	270.107300853258	531.500055801737	635.426332698136	232.450556976158	501.593625411805	793.915228167362	152.499952038150	553.122499900255	683.589599709630	170.529650499248	581.363688935981	841.609117470843	34.827902838161	588.870051701661	777.460756219182	39.989193289950	368.925900391613	853.943394606567	35.994337172476	291.128918103082	937.949094414787	95.382996288767	321.256282132347	1066.170727057879	39.434588930365	295.292059575515	1009.852528557336	1080.676775221474	79.325225959000	1177.515985678691	881.905727998473	109.736897347355	900.253014155230	1068.918934085876	658.546550221789	965.511493957950	818.900163391996	687.748347171379	
107	42.252428571429	745.202766194828	994.364489358184	381.320240040426	950.018296053216	1422.748663503750	211.821241505743	1037.142909288478	1347.930248166681	379.266934946136	944.621736492225	1419.228657365352	548.670356552764	924.595005952240	1483.619284513943	370.076508210361	971.884464486306	932.298795113402	507.797618918236	967.530019419089	947.636788224805	233.529830034372	1045.230959910079	751.236395808293	478.402125515962	995.965829036411	633.871963957321	550.708559084983	1080.176338696472	586.057619817908	468.964629323652	1088.127256294339	472.420705885347	495.745793801467	1026.089059421033	741.041165695806	274.933707037128	949.190606443699	615.063112941770	223.130286082629	1036.305039696495	546.970359196173	295.744449562836	1040.136284432354	472.710437375179	308.521390183496	999.823127819170	398.650498369288	304.526373095133	897.921438561376	295.988589493980	252.497974843854	922.032905019316	183.044901920768	330.558229193247	1004.460162985743	405.563809462008	509.046530938148	877.739547875760	381.576874745957	568.791734725856	856.169404814952	269.234196039790	528.972841520203	650.589948205120	224.601142301172	498.668112875821	811.688036986114	151.812569433361	550.861982857400	701.019742838611	165.503417907345	578.950030527510	863.688086008057	35.818721808027	587.534633546133	771.404637745970	39.937348063766	368.838556990309	847.932128365593	35.937277942866	291.019110626206	931.928776901307	95.292758448039	321.195042132562	1060.167076944181	39.413140227305	295.243365171969	1018.941345341330	1083.623583330359	77.520999600413	1194.077237492710	891.311286455884	108.315789332308	880.141931283903	1070.433051710616	655.502872469399	929.534544160085	816.679927622613	684.533291502440	
108	42.272357142857	743.651285232772	994.754217925542	378.028412035943	952.413161833208	1423.740419060155	212.277532409023	1036.130823683702	1348.379345466123	381.100205453551	940.370059499415	1419.208549243097	548.971292355568	924.191652282657	1484.072488152089	370.350692190866	969.066657888056	933.374845161558	507.302241986196	967.874267783994	948.232856663392	232.927752409951	1045.748624031462	755.243421579771	476.861988294692	999.562145393608	636.941868316416	549.367957389659	1084.287305073563	590.848314325802	467.148012462255	1095.420785979951	477.807729100307	493.941739239812	1024.169374362471	740.138439418070	274.061347372765	945.963194732827	614.836001366190	222.221257234080	1031.898376349694	546.016081883899	295.197996977928	1034.963079078180	472.113968521143	308.286471871598	994.511948455726	398.226629750840	304.118596032313	892.553754875607	295.667848043595	251.987245540326	916.187829071462	182.826532696162	330.380550870586	1014.082625887646	408.639433372228	507.484957148507	888.619208557153	379.992075355340	567.136818627932	871.394152974140	267.077788383272	527.268347604223	667.936037888937	212.900045229628	497.022665543339	832.230587452499	149.613121927795	549.312097562038	721.468385140149	157.305557863267	577.493924439834	890.013785335890	36.723559735849	586.303313148109	765.327380318089	39.860126956251	368.754929255851	841.898526371281	35.870636361897	290.905801686655	925.877258754164	95.222500046146	321.108547487272	1054.143559530867	39.423773783392	295.201977510491	1027.756048782668	1087.306374175754	75.913222147723	1210.353076607902	901.959825044366	107.059217619181	860.613235242818	1073.191814197378	652.332168913110	895.161784157081	816.840242292315	680.802050819113	
109	42.292285714286	742.232181510443	995.738081539508	374.930068108369	954.908961308326	1425.214815185175	213.071919119819	1035.168942022222	1349.333485378166	383.204655369557	936.190257688874	1419.782342685688	549.430557769306	923.821151063024	1484.995738072778	370.879862686501	966.173089535309	934.869266183658	507.147372524969	968.329209998169	949.249411342111	232.708436349847	1045.399225841399	759.190970782226	476.001019889609	1001.643451612929	640.220707819977	548.694307960964	1086.728851052108	595.526151073467	466.189015283127	1100.929943035678	483.598706282836	492.993426572505	1021.756358844349	739.413887493051	273.548858028538	941.956956872008	615.035465819714	221.404001267070	1026.438720671164	545.270545370175	294.722309030107	1028.588098863220	471.837369769140	308.059666824314	988.234246610248	398.198119725558	303.660387909467	886.475545107058	295.503590911567	251.443277871681	909.986289500670	182.808085858577	330.170855581039	1022.756126585619	411.858830725960	506.752479830734	899.441716970288	377.167409850669	566.581365634621	887.780596618429	263.851207765933	526.463460810864	687.698333598492	197.944494427527	496.692911472649	855.396549810180	146.177464011840	548.568425461547	744.942074956009	146.478645808393	577.044789646948	920.094891087330	37.705105601595	585.303918363686	759.232264495373	39.762278225314	368.672959857824	835.841769217037	35.795813775961	290.790478086415	919.794898997413	95.175315123512	320.995667648203	1048.100237699629	39.465526238379	295.168778622560	1036.336902356140	1091.699752398999	74.498140795773	1226.287310520937	913.801737340198	105.998710808680	841.888818838155	1077.115164530575	649.071190210330	862.792058284076	819.119838425959	676.654961307790	
